:FULLY-SPECIFIED
:FORCE-ALL-JOINTS-BE-3DOF
:DEGREES
1835
root 6.75388 13.8578 27.7649 1061.56 50.6138 339.118
lfemur -54.1444 32.4814 1.56389
ltibia 73.0709 0 0
lfoot -10.3915 -10.0803 0
ltoes -30.0384 0 0
rfemur 4.13084 -2.25953 16.578
rtibia 48.8519 0 0
rfoot -24.7346 -32.0131 0
rtoes -26.5023 0 0
lowerback 13.7349 5.21779 4.53606
upperback -0.446195 8.2246 5.2699
thorax -8.27542 3.94616 1.39875
lowerneck -4.27563 9.75596 3.2545
upperneck 8.16267 13.0635 -2.12415
head 3.82893 6.50767 -0.616413
lclavicle -1.29399e-13 1.77369e-14 0
lhumerus 62.4032 21.2196 111.502
lradius 10.388 0 0
lwrist -92.2086 0 0
lhand -30.2518 38.5912 0
lfingers 7.12502 0 0
lthumb -3.56142 68.5685 0
rclavicle -1.29399e-13 1.77369e-14 0
rhumerus -72.4453 13.3807 -80.0807
rradius 126.343 0 0
rwrist -155.544 0 0
rhand -67.2164 -385.25 0
rfingers 7.12502 0 0
rthumb -38.9915 378.522 0
1836
root 6.78347 13.8534 27.7755 1061.51 50.6537 338.98
lfemur -54.2608 32.5375 1.55728
ltibia 73.1507 0 0
lfoot -10.4717 -10.1257 0
ltoes -30.0196 0 0
rfemur 4.2227 -2.30543 16.6106
rtibia 48.674 0 0
rfoot -24.68 -31.9857 0
rtoes -26.84 0 0
lowerback 13.7645 5.2287 4.62861
upperback -0.466109 8.25849 5.26483
thorax -8.30167 3.95733 1.33267
lowerneck -4.17626 9.93739 3.39748
upperneck 8.086 13.3109 -2.27737
head 3.81425 6.62948 -0.681643
lclavicle -1.32581e-13 1.88246e-14 0
lhumerus 62.5254 21.1329 111.743
lradius 10.3619 0 0
lwrist -92.3636 0 0
lhand -30.2849 38.5921 0
lfingers 7.12502 0 0
lthumb -3.59335 68.5684 0
rclavicle -1.32581e-13 1.88246e-14 0
rhumerus -72.5472 13.3157 -80.2346
rradius 126.472 0 0
rwrist -154.424 0 0
rhand -67.0761 -389.402 0
rfingers 7.12502 0 0
rthumb -38.8673 373.233 0
1837
root 6.81306 13.849 27.7861 1061.41 50.7455 338.82
lfemur -54.3494 32.4973 1.55506
ltibia 73.1146 0 0
lfoot -10.4457 -10.1331 0
ltoes -29.8568 0 0
rfemur 4.28915 -2.38865 16.6603
rtibia 48.5345 0 0
rfoot -24.6553 -31.9345 0
rtoes -27.1605 0 0
lowerback 13.7953 5.22514 4.73338
upperback -0.481484 8.27418 5.25255
thorax -8.3222 3.9593 1.25582
lowerneck -4.07889 10.0988 3.52098
upperneck 7.99993 13.5311 -2.40639
head 3.79416 6.73812 -0.737407
lclavicle -1.35039e-13 1.97149e-14 0
lhumerus 62.6347 20.9886 111.923
lradius 10.3305 0 0
lwrist -92.3893 0 0
lhand -30.3561 38.6727 0
lfingers 7.12502 0 0
lthumb -3.66206 68.6466 0
rclavicle -1.35039e-13 1.97149e-14 0
rhumerus -72.6193 13.2187 -80.3548
rradius 126.582 0 0
rwrist -153.434 0 0
rhand -66.9475 -392.293 0
rfingers 7.12502 0 0
rthumb -38.7537 367.391 0
1838
root 6.84265 13.8446 27.7967 1061.27 50.8815 338.64
lfemur -54.4176 32.3754 1.55717
ltibia 72.9858 0 0
lfoot -10.3337 -10.106 0
ltoes -29.5785 0 0
rfemur 4.33674 -2.50419 16.7248
rtibia 48.4233 0 0
rfoot -24.6567 -31.8629 0
rtoes -27.4695 0 0
lowerback 13.8268 5.20997 4.85015
upperback -0.493253 8.2756 5.23421
thorax -8.33778 3.95394 1.16879
lowerneck -3.98112 10.2476 3.63098
upperneck 7.90541 13.7342 -2.51849
head 3.76982 6.83854 -0.786515
lclavicle -1.36809e-13 2.03799e-14 0
lhumerus 62.7315 20.7884 112.042
lradius 10.2951 0 0
lwrist -92.2998 0 0
lhand -30.4577 38.8177 0
lfingers 7.12502 0 0
lthumb -3.76017 68.788 0
rclavicle -1.36809e-13 2.03799e-14 0
rhumerus -72.6705 13.0961 -80.4582
rradius 126.67 0 0
rwrist -152.495 0 0
rhand -66.7924 -394.173 0
rfingers 7.12502 0 0
rthumb -38.6142 361.047 0
1839
root 6.87225 13.8403 27.8074 1061.1 51.0542 338.441
lfemur -54.4728 32.1864 1.56352
ltibia 72.7875 0 0
lfoot -10.1557 -10.0482 0
ltoes -29.2131 0 0
rfemur 4.372 -2.64706 16.8023
rtibia 48.3302 0 0
rfoot -24.6802 -31.7742 0
rtoes -27.7726 0 0
lowerback 13.8588 5.18604 4.97873
upperback -0.502351 8.26668 5.21099
thorax -8.34922 3.94317 1.0722
lowerneck -3.88055 10.3911 3.73343
upperneck 7.80342 13.9302 -2.62097
head 3.74238 6.93566 -0.831777
lclavicle -1.37924e-13 2.07919e-14 0
lhumerus 62.8165 20.5342 112.103
lradius 10.2574 0 0
lwrist -92.1094 0 0
lhand -30.5822 39.012 0
lfingers 7.12502 0 0
lthumb -3.88028 68.9777 0
rclavicle -1.37924e-13 2.07919e-14 0
rhumerus -72.7094 12.9542 -80.5615
rradius 126.735 0 0
rwrist -151.524 0 0
rhand -66.5728 -395.29 0
rfingers 7.12502 0 0
rthumb -38.4123 354.248 0
1840
root 6.90184 13.8359 27.818 1060.91 51.2558 338.225
lfemur -54.5222 31.9452 1.57404
ltibia 72.5428 0 0
lfoot -9.93176 -9.96316 0
ltoes -28.7892 0 0
rfemur 4.40148 -2.81226 16.8904
rtibia 48.2451 0 0
rfoot -24.7221 -31.672 0
rtoes -28.0756 0 0
lowerback 13.891 5.15621 5.11893
upperback -0.509711 8.25133 5.18405
thorax -8.35731 3.92887 0.966651
lowerneck -3.77476 10.5365 3.83429
upperneck 7.69492 14.1292 -2.72111
head 3.71303 7.03442 -0.876001
lclavicle -1.38419e-13 2.09229e-14 0
lhumerus 62.8901 20.2278 112.108
lradius 10.2188 0 0
lwrist -91.8322 0 0
lhand -30.7218 39.2402 0
lfingers 7.12502 0 0
lthumb -4.015 69.2007 0
rclavicle -1.38419e-13 2.09229e-14 0
rhumerus -72.745 12.7992 -80.6815
rradius 126.775 0 0
rwrist -150.442 0 0
rhand -66.2503 -395.895 0
rfingers 7.12502 0 0
rthumb -38.1114 347.045 0
